<svg xmlns="http://www.w3.org/2000/svg" viewBox="0 0 279.61 279.61"><g id="Camada_2" data-name="Camada 2"><g id="Camada_1-2" data-name="Camada 1"><path d="M154.16,125.45H279.61V63.55A63.55,63.55,0,0,0,216.06,0h-61.9Z"/><path d="M125.45,154.15H0v61.91a63.55,63.55,0,0,0,63.55,63.55h61.9Z"/><path d="M63.55,0A63.55,63.55,0,0,0,0,63.55v61.9H125.45V0Zm31.8,83.17A11.53,11.53,0,1,1,79,99.48L62.73,83.17,46.41,99.48A11.53,11.53,0,1,1,30.1,83.17L46.41,66.86,30.1,50.54A11.53,11.53,0,1,1,46.41,34.23L62.73,50.54,79,34.23A11.53,11.53,0,0,1,95.35,50.54L79,66.86Z"/><circle cx="216.88" cy="216.88" r="15.66"/><path d="M154.16,154.15V279.61h61.9a63.55,63.55,0,0,0,63.55-63.55V154.15Zm62.72,101.13a38.4,38.4,0,1,1,38.4-38.4A38.44,38.44,0,0,1,216.88,255.28Z"/></g></g></svg>