<?xml version="1.0" encoding="utf-8"?>
<!-- Generator: Adobe Illustrator 26.0.2, SVG Export Plug-In . SVG Version: 6.00 Build 0)  -->
<svg version="1.1" id="Camada_1" xmlns="http://www.w3.org/2000/svg" xmlns:xlink="http://www.w3.org/1999/xlink" x="0px" y="0px"
	 viewBox="0 0 312.1 312.1" style="enable-background:new 0 0 312.1 312.1;" xml:space="preserve">
<style type="text/css">
	.st0{fill:#FFFFFF;}
</style>
<path class="st0" d="M297.5,14.6c-19.5-19.5-51.2-19.5-70.7,0l-70.7,70.7L85.4,14.6c-19.5-19.5-51.2-19.5-70.7,0s-19.5,51.2,0,70.7
	l70.7,70.7l-70.7,70.7c-19.5,19.5-19.5,51.2,0,70.7s51.2,19.5,70.7,0l70.7-70.7l70.7,70.7c19.6,19.4,51.3,19.3,70.7-0.3
	c19.3-19.5,19.3-50.9,0-70.4l-70.7-70.7l70.7-70.7C317,65.8,317,34.2,297.5,14.6C297.5,14.6,297.5,14.6,297.5,14.6z"/>
</svg>
